<?xml version="1.0" encoding="UTF-8" standalone="no"?>
<svg
   xmlns:dc="http://purl.org/dc/elements/1.1/"
   xmlns:cc="http://creativecommons.org/ns#"
   xmlns:rdf="http://www.w3.org/1999/02/22-rdf-syntax-ns#"
   xmlns:svg="http://www.w3.org/2000/svg"
   xmlns="http://www.w3.org/2000/svg"
   xmlns:sodipodi="http://sodipodi.sourceforge.net/DTD/sodipodi-0.dtd"
   xmlns:inkscape="http://www.inkscape.org/namespaces/inkscape"
   id="svg18"
   preserveAspectRatio="xMidYMid"
   viewBox="-0.015 -0.015 1.03 1.03"
   height="108px"
   width="108px"
   version="1.1"
   sodipodi:docname="ic_app_color_fg_108dp-mdpi.svg"
   inkscape:version="0.92.3 (2405546, 2018-03-11)">
  <sodipodi:namedview
     pagecolor="#ffffff"
     bordercolor="#666666"
     borderopacity="1"
     objecttolerance="10"
     gridtolerance="10"
     guidetolerance="10"
     inkscape:pageopacity="0"
     inkscape:pageshadow="2"
     inkscape:window-width="1920"
     inkscape:window-height="1001"
     id="namedview3508"
     showgrid="false"
     inkscape:zoom="2.1851852"
     inkscape:cx="30.432203"
     inkscape:cy="54"
     inkscape:window-x="-9"
     inkscape:window-y="-9"
     inkscape:window-maximized="1"
     inkscape:current-layer="svg18" />
  <metadata
     id="metadata22">
    <rdf:RDF>
      <cc:Work
         rdf:about="">
        <dc:format>image/svg+xml</dc:format>
        <dc:type
           rdf:resource="http://purl.org/dc/dcmitype/StillImage" />
        <dc:title />
      </cc:Work>
    </rdf:RDF>
  </metadata>
  <defs
     id="defs11">
    <filter
       id="symbol-shadow">
      <feGaussianBlur
         id="feGaussianBlur2"
         stdDeviation="1.3"
         result="blur-out"
         in="SourceAlpha" />
      <feMerge
         id="feMerge8">
        <feMergeNode
           id="feMergeNode4" />
        <feMergeNode
           id="feMergeNode6"
           in="SourceGraphic" />
      </feMerge>
    </filter>
  </defs>
  <g
     id="g4081">
    <path
       style="fill:#ffffff;fill-opacity:1;stroke:#000000;stroke-width:0.00074382;stroke-opacity:1"
       inkscape:connector-curvature="0"
       id="path37"
       d="m 0.73177489,0.68677366 h -0.0603983 l 0.003645,-0.003124 c 0.002455,-0.003496 0.005727,-0.006397 0.009893,-0.008851 l 0.006769,-0.005207 0.005207,-0.003645 0.005207,-0.003645 0.007289,-0.005207 0.00781,-0.007289 0.005207,-0.006769 c 0.006248,-0.008331 0.009372,-0.0175542 0.009372,-0.0275958 0,-0.003793 -3.7192e-4,-0.007066 -0.001041,-0.00967 -6.6943e-4,-0.002603 -0.001711,-0.005802 -0.003124,-0.00967 -0.006918,-0.0166616 -0.0213477,-0.0249924 -0.0432161,-0.0249924 -0.014207,0 -0.0253643,0.004017 -0.0333232,0.0119755 -0.002752,0.003496 -0.004835,0.006322 -0.006248,0.008628 -0.001413,0.002231 -0.002455,0.00476 -0.003124,0.007587 -0.002083,0.005207 -0.003124,0.0109342 -0.003124,0.0171823 v 0.004686 h 0.0291578 v -0.0104135 l 0.003645,-0.00781 c 0.00305,-0.005876 0.007885,-0.008851 0.0146533,-0.008851 0.0117524,0 0.0176286,0.00662 0.0176286,0.0197857 0,0.007289 -0.002603,0.010116 -0.007736,0.0160666 l -0.007215,0.0104879 -0.009298,0.00781 -0.0150252,0.0108598 c -0.0172567,0.0145789 -0.0258106,0.0304223 -0.0258106,0.0473814 v 0.004686 h 0.0932753 v -0.0243974 z"
       class="st1" />
    <path
       style="fill:#ffffff;fill-opacity:1;stroke:#000000;stroke-width:0.00074382;stroke-opacity:1"
       inkscape:connector-curvature="0"
       id="path39"
       d="m 0.31300319,0.65731832 c 0.0149508,0.0179261 0.0310918,0.0310174 0.0484228,0.0393482 0.007289,0.004165 0.0130913,0.006918 0.0174798,0.008331 0.004314,0.001413 0.009447,0.002603 0.0153971,0.003645 0.005876,0.001041 0.0120499,0.001711 0.0185212,0.002083 0.006397,3.7191e-4 0.0130913,5.2067e-4 0.0200832,5.2067e-4 0.0145789,0 0.0321331,-0.003273 0.0525882,-0.009893 0.0100416,-0.005579 0.0180749,-0.0107854 0.0239511,-0.0156203 0.005876,-0.004835 0.0114549,-0.0107854 0.0166616,-0.017703 l 0.006769,0.0359266 h 0.057795 V 0.48460289 H 0.41453487 v 0.0728945 h 0.0906719 c -0.003124,0.0194138 -0.009744,0.0364473 -0.0197857,0.0510262 -0.007959,0.009744 -0.0164385,0.016736 -0.0252899,0.0211245 -0.008851,0.004314 -0.0186699,0.006546 -0.0294553,0.006546 -0.0222403,0 -0.0389019,-0.009893 -0.0499848,-0.0296785 -0.007959,-0.0131657 -0.0145789,-0.0295297 -0.0197857,-0.0489435 -0.004537,-0.0131657 -0.006769,-0.0329513 -0.006769,-0.059357 0,-0.0597289 0.0135376,-0.1001928 0.0406127,-0.12139173 0.0110829,-0.007959 0.0234304,-0.0119755 0.0369679,-0.0119755 0.007661,0 0.0159922,0.001711 0.0249924,0.005207 0.003496,0.001413 0.007215,0.003124 0.0112317,0.005207 0.004017,0.002083 0.006694,0.003645 0.008108,0.004686 0.0118268,0.0107854 0.0218684,0.0264057 0.0301992,0.0468608 h 0.0875478 c -0.004537,-0.0164385 -0.009372,-0.0306455 -0.0145789,-0.0425466 -0.002083,-0.005579 -0.00476,-0.0115292 -0.008108,-0.0178517 -0.003273,-0.006322 -0.006322,-0.0112317 -0.009149,-0.0147277 -0.0218684,-0.0328769 -0.0505055,-0.0526626 -0.0859858,-0.0592826 -0.009744,-0.002455 -0.0175542,-0.003645 -0.0234304,-0.003645 h -0.0104135 -0.009372 c -0.0597289,0 -0.10368877,0.0238023 -0.13180523,0.0713325 -0.0218684,0.0403152 -0.0328025,0.0871759 -0.0328025,0.14065671 0,0.0305711 0.003124,0.0592082 0.009372,0.0859858 0.008703,0.0291578 0.0205295,0.052737 0.0354804,0.0705883 z"
       class="st1" />
  </g>
</svg>
